<?xml version="1.0" standalone="no"?>
<!DOCTYPE svg PUBLIC "-//W3C//DTD SVG 20010904//EN"
"http://www.w3.org/TR/2001/REC-SVG-20010904/DTD/svg10.dtd"
[
 <!ATTLIST svg
  xmlns:xlink CDATA #FIXED "http://www.w3.org/1999/xlink">
]>
<!-- Created with Sodipodi ("http://www.sodipodi.com/") -->
<svg
   id="svg88"
   sodipodi:version="0.26"
   width="210mm"
   height="297mm"
   sodipodi:docname="runtime-overview.svg"
   xmlns="http://www.w3.org/2000/svg"
   xmlns:sodipodi="http://sodipodi.sourceforge.net/DTD/sodipodi-0.dtd"
   xmlns:xlink="http://www.w3.org/1999/xlink">
  <defs
     id="defs90" />
  <sodipodi:namedview
     id="base" />
  <path
     style="fill:#eaeaea;fill-rule:evenodd;stroke:black;stroke-opacity:1;stroke-width:1pt;stroke-linejoin:miter;stroke-linecap:butt;fill-opacity:1;"
     d="M 79.4143 213.304 C 79.831 213.72 80.2477 214.137 80.6643 214.554 C 78.2343 212.124 88.658 214.554 91.9143 214.554 C 99.831 214.554 107.748 214.554 115.664 214.554 C 123.077 214.554 130.227 215.804 138.164 215.804 C 141.176 215.804 148.179 217.054 153.164 217.054 C 159.392 217.054 166.286 218.304 173.164 218.304 C 177.099 218.304 185.664 216.526 185.664 220.804 C 185.664 226.929 186.914 230.268 186.914 237.054 C 186.914 242.887 186.914 248.72 186.914 254.554 C 186.914 262.398 182.303 260.804 175.664 260.804 C 173.732 258.871 159.414 258.627 159.414 260.804 C 159.414 267.663 160.664 272.875 160.664 279.554 C 160.664 285.804 160.664 292.054 160.664 298.304 C 160.664 304.346 162.274 307.054 155.664 307.054 C 146.081 307.054 136.498 307.054 126.914 307.054 C 118.685 307.054 111.289 305.804 103.164 305.804 C 99.0229 301.662 89.8149 307.454 85.6643 303.304 C 79.7217 303.304 81.9143 297.353 81.9143 292.054 C 81.9143 284.649 83.1643 278.168 83.1643 270.804 C 83.1643 264.137 83.1643 257.47 83.1643 250.804 C 83.1643 244.554 83.1643 238.304 83.1643 232.054 C 83.1643 225.453 81.9498 219.642 79.4143 213.304 z "
     id="path93"
     transform="translate(-10.0067,-51.6106)" />
  <path
     style="fill:#eaeaea;fill-rule:evenodd;stroke:black;stroke-opacity:1;stroke-width:1pt;stroke-linejoin:miter;stroke-linecap:butt;fill-opacity:1;"
     d="M 193.164 218.304 C 193.581 218.304 193.998 218.304 194.414 218.304 C 192.69 218.304 203.829 218.304 206.914 218.304 C 213.164 218.304 219.414 218.304 225.664 218.304 C 231.498 218.304 237.331 218.304 243.164 218.304 C 247.168 218.304 244.414 225.387 244.414 229.554 C 244.414 235.804 244.414 242.054 244.414 248.304 C 244.414 254.97 244.414 261.637 244.414 268.304 C 244.414 274.137 244.414 279.97 244.414 285.804 C 244.414 291.637 244.414 297.47 244.414 303.304 C 236.185 303.304 229.14 302.054 220.664 302.054 C 217.489 298.878 206.356 300.804 201.914 300.804 C 195.664 300.804 189.414 300.804 183.164 300.804 C 177.331 300.804 171.498 300.804 165.664 300.804 C 165.664 295.782 166.914 289.124 166.914 283.304 C 166.914 280.629 163.899 267.054 166.914 267.054 C 166.914 263.63 180.955 267.054 183.164 267.054 C 187.208 267.054 196.914 268.874 196.914 264.554 C 196.914 258.72 196.914 252.887 196.914 247.054 C 196.914 242.67 195.664 238.917 195.664 233.304 C 192.665 233.304 193.164 220.469 193.164 218.304 z "
     id="path94"
     transform="translate(-5.61871,-49.1106)" />
  <path
     style="fill:#eaeaea;fill-rule:evenodd;stroke:black;stroke-opacity:1;stroke-width:1pt;stroke-linejoin:miter;stroke-linecap:butt;fill-opacity:1;"
     d="M 83.1643 314.554 C 83.581 314.554 83.9977 314.554 84.4143 314.554 C 80.8662 314.554 96.0761 314.554 98.1643 314.554 C 109.398 314.554 120.005 315.607 130.664 312.054 C 146.498 312.054 162.331 312.054 178.164 312.054 C 190.664 312.054 203.164 312.054 215.664 312.054 C 224.831 312.054 233.998 312.054 243.164 312.054 C 253.581 312.054 263.998 312.054 274.414 312.054 C 284.831 312.054 295.248 312.054 305.664 312.054 C 310.008 316.398 321.876 312.054 326.914 312.054 C 330.08 312.054 338.164 310.111 338.164 312.054 C 341.485 315.374 339.632 323.739 341.914 328.304 C 341.914 336.22 341.914 344.137 341.914 352.054 C 341.914 358.304 341.914 364.554 341.914 370.804 C 341.914 375.391 341.262 382.651 344.414 385.804 C 330.664 385.804 316.914 385.804 303.164 385.804 C 288.581 385.804 273.998 385.804 259.414 385.804 C 242.331 385.804 225.248 385.804 208.164 385.804 C 189.831 385.804 171.498 385.804 153.164 385.804 C 141.498 385.804 129.831 385.804 118.164 385.804 C 112.324 382.884 100.143 387.782 95.6643 383.304 C 89.5903 383.304 80.6643 385.602 80.6643 378.304 C 80.6643 372.054 80.6643 365.804 80.6643 359.554 C 80.6643 352.887 80.6643 346.22 80.6643 339.554 C 80.6643 334.268 81.9143 328.048 81.9143 322.054 C 84.7039 322.054 83.1643 316.45 83.1643 314.554 z "
     id="path95"
     transform="translate(-11.2567,-49.1106)" />
  <path
     style="fill:#eaeaea;fill-rule:evenodd;stroke:black;stroke-opacity:1;stroke-width:1pt;stroke-linejoin:miter;stroke-linecap:butt;fill-opacity:1;"
     d="M 79.1051 199.682 C 80.1402 200.455 85.6591 199.373 86.0757 199.373 C 81.0558 199.373 91.876 199.232 93.3189 199.232 C 104.962 203.113 118.41 202.054 130.664 202.054 C 142.331 202.054 153.998 202.054 165.664 202.054 C 174.889 202.054 183.697 200.804 193.164 200.804 C 201.784 200.804 209.765 199.554 218.164 199.554 C 223.437 199.554 234.125 203.593 238.164 199.554 C 242.494 199.554 252.64 197.78 255.664 200.804 C 261.608 200.804 259.414 206.732 259.414 212.054 C 259.414 219.078 260.664 227.074 260.664 234.554 C 260.664 242.47 260.664 250.387 260.664 258.304 C 260.664 266.357 261.914 274.855 261.914 283.304 C 261.914 289.069 260.664 295.525 260.664 299.554 C 260.664 302.915 274.713 299.554 276.914 299.554 C 284.192 299.554 298.035 302.183 303.164 297.054 C 310.248 297.054 317.331 297.054 324.414 297.054 C 328.614 297.054 337.305 302.503 341.61 298.152 C 345.522 292.351 343.414 278.118 343.414 267.76 C 343.414 259.659 345.685 252.427 345.685 244.326 C 345.26 237.213 345.218 229.631 345.218 221.673 C 345.218 210.402 344.827 201.113 344.827 190.347 C 344.827 182.829 344.044 173.208 344.044 165.576 C 344.044 158.787 342.012 150.871 342.012 144.087 C 342.012 138.253 343.968 128.898 343.968 123.065 C 343.968 116.943 312.999 121.663 309.099 121.663 C 294.118 116.669 277.739 119.554 261.914 119.554 C 243.581 119.554 225.248 119.554 206.914 119.554 C 196.981 119.554 187.982 120.804 178.164 120.804 C 169.768 125.002 150.372 122.054 141.914 122.054 C 131.152 122.054 121.388 123.304 110.664 123.304 C 104.482 126.395 93.8199 124.554 86.9143 124.554 C 80.2022 124.554 78.2927 122.805 78.2927 130.34 C 78.2927 137.553 79.8257 145.983 79.8257 153.123 C 79.5486 158.193 79.9672 163.556 78.7172 171.409 C 77.4672 175.582 77.9004 181.126 77.8026 185.146 C 77.8026 188.914 77.1336 194.753 79.1051 199.682 z "
     id="path97"
     sodipodi:nodetypes="ccccccccccccccccccccccccccccccccccccc"
     transform="translate(-11.8947,-46.5585)" />
  <path
     style="fill:#eaeaea;fill-rule:evenodd;stroke:black;stroke-opacity:1;stroke-width:1pt;stroke-linejoin:miter;stroke-linecap:butt;fill-opacity:1;"
     d="M 71.2625 343.603 C 71.2625 343.815 71.2625 344.028 71.2625 344.241 C 71.2625 343.751 71.2625 349.503 71.2625 351.259 C 71.2625 356.576 71.2625 361.893 71.2625 367.209 C 71.2625 372.101 71.2625 376.992 71.2625 381.884 C 71.2625 386.097 69.9865 389.704 69.9865 394.006 C 69.9865 397.409 69.9865 400.812 69.9865 404.215 C 69.9865 407.387 70.4862 406.767 73.8146 406.767 C 80.4481 406.767 87.27 407.598 93.5932 405.491 C 111.032 405.491 128.472 405.491 145.911 405.491 C 157.043 405.491 167.902 406.767 179.088 406.767 C 185.565 406.767 191.687 406.129 198.229 406.129 C 203.971 406.129 209.713 406.129 215.455 406.129 C 220.134 406.129 224.813 406.129 229.492 406.129 C 234.231 406.129 238.131 406.767 242.89 406.767 C 245.697 405.363 249.975 406.129 253.098 406.129 C 256.288 406.129 259.478 406.129 262.669 406.129 C 262.669 402.525 261.393 399.473 261.393 395.92 C 260.27 394.797 259.478 389.348 259.478 387.626 C 260.116 384.213 261.392 380.94 261.392 377.418 C 259.99 373.336 260.116 368.917 260.116 365.933 C 260.116 362.154 260.116 359.13 260.116 355.087 C 260.116 352.11 260.116 348.494 260.116 345.517 C 260.116 343.639 249.046 345.517 247.994 345.517 C 241.44 345.517 234.433 346.313 228.216 344.241 C 221.46 344.241 214.717 344.879 207.799 344.879 C 200.355 344.879 192.912 344.879 185.468 344.879 C 178.025 344.879 170.581 344.879 163.137 344.879 C 157.644 344.879 152.422 345.348 147.187 343.603 C 140.594 343.603 134.001 343.603 127.408 343.603 C 122.729 343.603 118.051 343.603 113.372 343.603 C 111.547 341.778 104.428 342.965 101.887 342.965 C 97.898 342.965 93.4716 342.327 89.1271 342.327 C 85.4451 342.327 82.5135 342.965 78.9188 342.965 C 76.2241 342.965 73.9084 342.941 71.2625 343.603 z "
     id="path28"
     transform="translate(-1.27604,3.1901)"
     sodipodi:nodetypes="ccccccccccccccccccccccccccccccccccc" />
  <text
     style="fill:black;stroke:none;font-family:Helvetica;font-style:normal;font-weight:normal;font-size:14;text-anchor:start;writing-mode:lr;fill-opacity:1;stroke-opacity:1;stroke-width:1pt;stroke-linejoin:miter;stroke-linecap:butt;"
     x="136.729111"
     y="118.864716"
     id="text98">
    <tspan
       id="tspan99">
Application software</tspan>
  </text>
  <text
     style="fill:black;stroke:none;font-family:Helvetica;font-style:normal;font-weight:normal;font-size:14;text-anchor:start;writing-mode:lr;fill-opacity:1;stroke-opacity:1;stroke-width:1pt;stroke-linejoin:miter;stroke-linecap:butt;"
     x="86.243408"
     y="197.528473"
     id="text101">
    <tspan
       id="tspan102">
Operating</tspan>
    <tspan
       sodipodi:role="line"
       id="tspan104"
       x="86.2434"
       y="211.528">
System</tspan>
  </text>
  <text
     style="fill:black;stroke:none;font-family:Helvetica;font-style:normal;font-weight:normal;font-size:14;text-anchor:start;writing-mode:lr;fill-opacity:1;stroke-opacity:1;stroke-width:1pt;stroke-linejoin:miter;stroke-linecap:butt;"
     x="170.777603"
     y="237.447418"
     id="text106">
    <tspan
       id="tspan107">
Optimiser</tspan>
  </text>
  <text
     style="fill:black;stroke:none;font-family:Helvetica;font-style:normal;font-weight:normal;font-size:14;text-anchor:start;writing-mode:lr;fill-opacity:1;stroke-opacity:1;stroke-width:1pt;stroke-linejoin:miter;stroke-linecap:butt;"
     x="113.247391"
     y="306.718475"
     id="text109">
    <tspan
       id="tspan110">
Instruction-Set Architecture</tspan>
  </text>
  <text
     style="fill:black;stroke:none;font-family:Helvetica;font-style:normal;font-weight:normal;font-size:14;text-anchor:start;writing-mode:lr;fill-opacity:1;stroke-opacity:1;stroke-width:1pt;stroke-linejoin:miter;stroke-linecap:butt;"
     x="133.002943"
     y="383.366228"
     id="text112">
    <tspan
       id="tspan113">
Hardware</tspan>
  </text>
  <path
     style="fill:#eaeaea;fill-rule:evenodd;stroke:black;stroke-opacity:1;stroke-width:1pt;stroke-linejoin:miter;stroke-linecap:butt;fill-opacity:1;"
     d="M 270.325 344.879 C 270.325 345.091 270.325 345.304 270.325 345.517 C 270.325 344.169 270.325 350.652 270.325 351.897 C 270.325 358.796 270.963 365.595 270.963 372.314 C 270.963 376.992 270.963 381.671 270.963 386.35 C 270.963 389.59 272.504 392.838 270.963 395.92 C 270.963 397.153 271.523 403.577 272.239 403.577 C 277.046 403.577 282.951 404.215 288.189 404.215 C 294.782 404.215 301.375 404.215 307.968 404.215 C 312.698 404.215 317.484 403.577 322.004 403.577 C 325.407 403.577 328.81 403.577 332.213 403.577 C 332.486 403.577 337.955 402.779 337.955 402.301 C 337.955 397.209 338.303 392.498 336.679 387.626 C 336.679 381.589 336.041 375.616 336.041 369.762 C 334.625 368.346 334.765 362.273 334.765 360.191 C 334.765 356.717 334.127 353.545 334.127 349.983 C 331.818 347.674 335.318 344.879 330.937 344.879 C 326.054 344.879 320.737 344.241 315.624 344.241 C 312.749 344.241 310.206 342.803 307.33 344.241 C 303.289 344.241 299.248 344.241 295.208 344.241 C 291.128 344.241 287.366 344.879 283.085 344.879 C 280.108 344.879 277.13 344.879 274.153 344.879 C 272.877 344.879 271.601 344.879 270.325 344.879 z "
     id="path27"
     transform="translate(-0.638021,3.1901)" />
  <text
     style="fill:black;stroke:none;font-family:Helvetica;font-style:normal;font-weight:normal;font-size:14;fill-opacity:1;stroke-opacity:1;stroke-width:1pt;stroke-linejoin:miter;stroke-linecap:butt;text-anchor:start;writing-mode:lr;"
     x="279.895134"
     y="381.245921"
     id="text30">
    <tspan
       x="279.895"
       y="381.246"
       sodipodi:role="line"
       id="tspan33">
Profiler</tspan>
  </text>
</svg>
